<svg width="27.000000" height="25.000031" viewBox="0 0 27 25" fill="none" xmlns="http://www.w3.org/2000/svg" xmlns:xlink="http://www.w3.org/1999/xlink">
	<desc>
			Created with Pixso.
	</desc>
	<defs/>
	<path id="Vector" d="M7.2 13.75C6.12 14.38 5.77 14.52 4.77 15.37C2.55 17.26 0.9 19.65 0.19 22.75C-0.1 24.15 -0.31 25 1.47 25L25.58 25C27.3 25 27.09 24.08 26.8 22.68C26.44 21.2 25.87 19.65 25.08 18.46C23.87 16.63 22.15 14.8 19.86 13.75C19.65 13.82 19.43 14.1 19.22 14.24C18.57 14.8 18 15.16 17.14 15.51C16.14 16 14.78 16.28 13.49 16.28C11.7 16.28 9.77 15.65 8.41 14.73C8.13 14.52 7.27 13.82 7.2 13.75Z" fill="#5B5B5B" fill-opacity="1.000000" fill-rule="evenodd"/>
	<path id="Vector" d="M12.49 0.05C11.42 0.26 10.99 0.33 10.06 0.82C7.84 1.87 6.27 4.12 5.91 6.51C5.62 8.62 6.2 10.31 7.05 11.71C7.41 12.34 8.13 13.05 8.63 13.4C9.34 13.89 9.77 14.24 10.7 14.59C13.21 15.65 16.36 15.09 18.43 13.4C19 12.91 19.57 12.42 20 11.71C20.86 10.31 21.51 8.55 21.22 6.44C21.08 5.46 20.86 4.83 20.43 3.98C20.29 3.63 20 3.28 19.79 3C19.65 2.79 19.57 2.72 19.43 2.58C19.29 2.44 19.15 2.3 19.07 2.15C18.57 1.94 16.78 -0.38 12.56 0.05L12.49 0.05Z" fill="#5B5B5B" fill-opacity="1.000000" fill-rule="evenodd"/>
</svg>
