<svg width="30.000000" height="29.000000" viewBox="0 0 30 29" fill="none" xmlns="http://www.w3.org/2000/svg" xmlns:xlink="http://www.w3.org/1999/xlink">
	<desc>
			Created with Pixso.
	</desc>
	<defs/>
	<path id="Vector" d="M21.51 24.84C23.13 24.36 23.72 26.88 22.09 27.36C21.27 27.6 20.69 27 20.58 26.4C20.34 25.56 20.93 24.96 21.51 24.84ZM11.04 24.84C12.67 24.36 13.25 27 11.62 27.36C10.81 27.6 10.23 27 10.11 26.4C9.88 25.56 10.46 24.96 11.04 24.84ZM15.69 15.96L16.16 15.96L19.88 15.96L20.11 15.96L20.11 16.2L20.11 17.76L20.11 18.12L15.69 18.12L15.69 15.96ZM24.3 17.88L24.18 18.12L21.97 18.12C21.86 17.88 21.97 16.92 21.97 16.44C21.97 15.96 21.97 16.2 21.97 15.96L24.76 15.96L24.18 17.88L24.3 17.88ZM13.72 15.96C13.83 16.08 13.83 15.84 13.72 16.08L13.72 18.12C13.48 18.12 12.9 18.12 12.55 18.12C12.32 18.12 11.62 18.12 11.51 18.12L10.81 15.96L13.72 15.96ZM15.69 11.4L20.11 11.4L20.11 13.92L15.69 13.92L15.69 11.4ZM13.83 11.4L13.83 13.92L10.23 13.92C10.11 13.68 9.41 11.76 9.41 11.4C10.11 11.4 13.48 11.28 13.83 11.4ZM22.09 13.92C21.97 13.92 21.97 14.04 21.97 13.68C21.97 13.2 21.97 11.64 21.97 11.4L26.27 11.4C26.27 11.64 26.27 11.52 26.27 11.52L25.58 13.92L22.2 13.92L22.09 13.92ZM15.69 9.36C15.58 9.12 15.58 7.44 15.69 7.2C15.93 7.08 17.44 7.2 17.9 7.2C18.25 7.2 19.88 7.08 20.11 7.2L20.11 9.36C19.76 9.48 18.37 9.36 17.9 9.36C17.79 9.36 15.81 9.36 15.69 9.36ZM21.97 7.2L27.55 7.2C27.55 7.32 26.97 9.24 26.86 9.48L21.97 9.48L21.97 7.2ZM8.6 9.36C8.48 9.12 7.9 7.44 7.9 7.32L7.79 7.2C8.13 7.08 13.37 7.08 13.6 7.2L13.6 9.36C13.37 9.36 9.65 9.36 8.72 9.36C8.48 9.36 8.6 9.36 8.48 9.36L8.6 9.36ZM0 0.84L0 1.32C0.11 1.56 0.11 1.68 0.34 1.8C0.58 1.92 1.74 2.4 2.09 2.52C2.9 2.88 3.72 3.24 4.41 3.48C4.76 3.6 4.65 3.6 4.76 3.96L7.09 10.8C7.32 11.64 7.67 12.48 7.9 13.32C8.25 14.16 8.48 15 8.72 15.84C8.83 16.2 8.95 16.68 9.18 17.04C9.3 17.4 9.53 17.88 9.65 18.24C9.18 18.48 9.06 18.96 8.83 19.68C8.6 20.16 7.67 22.8 7.67 23.16C7.67 24.12 8.72 23.88 9.18 24C9.18 24.24 8.6 24.6 8.6 25.56C8.13 29.04 12.55 30.24 13.95 27.24C14.76 25.56 13.6 24.24 13.48 24L19.65 24C19.65 24.12 19.53 24.24 19.41 24.36C19.3 24.48 19.3 24.6 19.18 24.72C19.06 24.96 18.95 25.2 18.95 25.56C18.48 28.92 22.9 30.36 24.3 27.36C24.65 26.52 24.65 25.56 24.3 24.72C24.18 24.48 23.95 24.24 23.95 24.12C24.65 24 25.23 24.24 25.46 23.76C25.81 23.28 25.34 22.68 25 22.56C24.65 22.44 21.74 22.56 21.16 22.56C17.44 22.56 13.25 22.68 9.65 22.56C9.65 22.32 10.34 20.28 10.46 20.04C11.74 20.16 13.13 20.04 14.53 20.04C17.79 20.04 21.51 20.04 24.76 20.04C25.46 20.04 25.69 19.8 25.93 19.08C26.86 15.96 28.02 12.6 28.95 9.48C29.06 9.12 29.88 6.48 30 6.36L30 5.88C29.76 5.64 29.76 5.28 29.18 5.16C28.72 5.04 14.41 5.16 13.13 5.16C12.09 5.16 8.02 5.16 7.32 5.16C7.2 4.8 6.62 3.12 6.51 2.64C6.27 1.8 5.69 1.8 4.53 1.32C3.95 1.08 1.51 0 0.93 0C0.34 0 0.34 0.36 0.11 0.72L0 0.84Z" fill="#5B5B5B" fill-opacity="1.000000" fill-rule="evenodd"/>
</svg>
