<svg width="40.567474" height="40.736328" viewBox="0 0 40.5675 40.7363" fill="none" xmlns="http://www.w3.org/2000/svg" xmlns:xlink="http://www.w3.org/1999/xlink">
	<desc>
			Created with Pixso.
	</desc>
	<defs/>
	<path id="path" d="M31.63 0.16L8.93 0.16C4 0.16 0 4.2 0 9.1L0 31.82C0 36.75 4 40.73 8.93 40.73L31.63 40.73C36.53 40.73 40.53 36.75 40.53 31.82L40.53 9.1C40.53 4.2 36.53 0.16 31.63 0.16Z" fill="#FEFEFE" fill-opacity="1.000000" fill-rule="nonzero"/>
	<path id="path" d="M8.93 0L31.63 0C36.53 0 40.56 4 40.56 8.9L40.56 31.63C40.56 36.56 36.53 40.56 31.63 40.56L8.93 40.56C4 40.56 0 36.56 0 31.63L0 8.9C0 4 4 0 8.93 0Z" fill="#00B394" fill-opacity="1.000000" fill-rule="evenodd"/>
	<path id="path" d="M22.21 15.68L22.21 13.72C22.21 12.77 22.86 12.55 23.3 12.55C23.72 12.55 26.05 12.55 26.05 12.55L26.05 8.37L22.27 8.37C18.07 8.37 17.14 11.48 17.14 13.47L17.14 15.68L14.7 15.68L14.7 20.56L17.14 20.56C17.14 26.11 17.14 32.77 17.14 32.77L22.04 32.77C22.04 32.77 22.04 26.02 22.04 20.56L25.66 20.56L25.83 18.65L26.11 15.68L22.21 15.68Z" fill="#FEFEFE" fill-opacity="1.000000" fill-rule="evenodd"/>
</svg>
