<svg width="40.651459" height="40.736328" viewBox="0 0 40.6515 40.7363" fill="none" xmlns="http://www.w3.org/2000/svg" xmlns:xlink="http://www.w3.org/1999/xlink">
	<desc>
			Created with Pixso.
	</desc>
	<defs/>
	<path id="path" d="M31.65 0.16L8.93 0.16C4.03 0.16 0.08 4.2 0.08 9.1L0.08 31.82C0.08 36.75 4.03 40.73 8.93 40.73L31.65 40.73C36.56 40.73 40.65 36.75 40.65 31.82L40.65 9.1C40.65 4.2 36.56 0.16 31.65 0.16Z" fill="#FEFEFE" fill-opacity="1.000000" fill-rule="nonzero"/>
	<path id="path" d="M8.93 0L31.65 0C36.56 0 40.59 4 40.59 8.9L40.59 31.63C40.59 36.56 36.56 40.56 31.65 40.56L8.93 40.56C4.03 40.56 0 36.56 0 31.63L0 8.9C0 4 4.03 0 8.93 0Z" fill="#00B394" fill-opacity="1.000000" fill-rule="evenodd"/>
	<path id="path" d="M14.34 8.82C11.31 8.82 8.85 11.29 8.85 14.34L8.85 26.22C8.85 29.24 11.31 31.71 14.34 31.71L26.25 31.71C29.27 31.71 31.74 29.24 31.74 26.22L31.74 14.34C31.74 11.29 29.27 8.82 26.25 8.82L14.34 8.82ZM26.25 34.09L14.34 34.09C10 34.09 6.47 30.56 6.47 26.22L6.47 14.34C6.47 10 10 6.47 14.34 6.47L26.25 6.47C30.56 6.47 34.09 10 34.09 14.34L34.09 26.22C34.09 30.56 30.56 34.09 26.25 34.09Z" fill="#FEFEFE" fill-opacity="1.000000" fill-rule="evenodd"/>
	<path id="path" d="M20.28 15.57C17.7 15.57 15.57 17.67 15.57 20.28C15.57 22.89 17.7 24.99 20.28 24.99C22.88 24.99 24.99 22.89 24.99 20.28C24.99 17.67 22.88 15.57 20.28 15.57ZM20.28 27.34C16.38 27.34 13.22 24.17 13.22 20.28C13.22 16.39 16.38 13.19 20.28 13.19C24.17 13.19 27.37 16.39 27.37 20.28C27.37 24.17 24.17 27.34 20.28 27.34Z" fill="#FEFEFE" fill-opacity="1.000000" fill-rule="evenodd"/>
	<path id="path" d="M29.36 12.8C29.36 13.75 28.6 14.51 27.68 14.51C26.72 14.51 25.97 13.75 25.97 12.8C25.97 11.85 26.72 11.09 27.68 11.09C28.6 11.09 29.36 11.85 29.36 12.8Z" fill="#FEFEFE" fill-opacity="1.000000" fill-rule="evenodd"/>
</svg>
