<svg width="180.000031" height="100.000000" viewBox="0 0 180 100" fill="none" xmlns="http://www.w3.org/2000/svg" xmlns:xlink="http://www.w3.org/1999/xlink">
	<desc>
			Created with Pixso.
	</desc>
	<defs/>
	<path id="Vector" d="M38.76 76.95L13.68 76.95C10.98 76.95 8.79 74.7 8.79 71.91L8.79 34.06C10.35 34.71 12.13 35.07 14.14 35.13L14.2 35.13C19.03 35.48 24.44 34.83 29.55 34.24L29.61 34.24C31.74 34 33.75 33.76 35.71 33.59C37.61 33.41 39.39 33.35 40.88 33.41C42.49 33.47 43.82 33.76 44.68 34.3C45.37 34.77 45.77 35.48 45.71 36.55L45.71 36.61L45.71 36.67L45.71 36.72L45.71 36.78C45.83 38.62 45.83 40.81 45.83 43.06C45.83 45.37 45.77 47.74 45.71 50L45.71 50.05C45.71 51.54 45.66 52.9 45.66 54.08C45.2 54.2 44.79 54.32 44.33 54.5C43.24 54.97 42.21 55.68 41.4 56.51C40.54 57.4 39.91 58.41 39.45 59.53C38.99 60.66 38.76 61.84 38.76 63.09L38.76 76.77L38.76 76.95Z" fill="#B01C2E" fill-opacity="1.000000" fill-rule="evenodd"/>
	<path id="Vector" d="M52.5 76.95L43.07 76.95L43.07 63.27C43.07 62.61 43.18 61.96 43.41 61.43C43.64 60.84 43.99 60.3 44.45 59.83C44.91 59.36 45.43 59 46 58.76C46.58 58.53 47.15 58.41 47.78 58.41C48.42 58.41 49.05 58.53 49.57 58.76C50.14 59 50.66 59.36 51.12 59.83C51.58 60.3 51.92 60.84 52.15 61.43C52.38 62.02 52.5 62.61 52.5 63.27L52.5 76.95Z" fill="#486BB1" fill-opacity="1.000000" fill-rule="evenodd"/>
	<path id="Vector" d="M78.03 17.23L78.03 72.98C78.03 75.17 76.31 77.01 74.12 77.01L56.87 77.01L56.87 63.32C56.87 62.08 56.64 60.84 56.18 59.77C55.72 58.64 55.03 57.58 54.23 56.75C53.36 55.86 52.38 55.21 51.29 54.73C50.89 54.56 50.49 54.44 50.03 54.32C50.03 53.02 50.08 51.71 50.08 50.35L50.08 50.29C50.14 48.04 50.2 45.61 50.2 43.24C50.2 40.93 50.2 38.68 50.08 36.78C50.2 34 49.28 32.16 47.61 30.92C46 29.73 43.76 29.2 41.11 29.08C39.39 29.02 37.49 29.08 35.48 29.26C33.46 29.44 31.34 29.68 29.15 29.91C24.21 30.5 18.97 31.1 14.49 30.74L14.43 30.74L14.37 30.74C12.07 30.68 10.23 30.09 8.79 29.08L8.79 18.48C9.14 18.95 9.48 19.43 9.89 19.84C10.92 20.91 12.19 21.8 13.57 22.39C14.89 22.98 16.33 23.28 17.88 23.28L68.26 23.28C69.75 23.28 71.25 22.98 72.57 22.39C73.95 21.8 75.22 20.91 76.25 19.84C77 19.07 77.57 18.24 78.09 17.29L78.03 17.23Z" fill="#B01C2E" fill-opacity="1.000000" fill-rule="evenodd"/>
	<path id="Vector" d="M13.05 11.25L17.42 11.25L17.42 77.42L13.05 77.42C10.69 77.42 8.74 75.41 8.74 72.98L8.74 15.63C8.74 13.21 10.69 11.19 13.05 11.19L13.05 11.25Z" fill="#F7B512" fill-opacity="1.000000" fill-rule="evenodd"/>
	<path id="Vector" d="M17.42 11.25L26.1 11.25L26.1 77.42L17.42 77.42L17.42 11.25Z" fill="#FF803B" fill-opacity="1.000000" fill-rule="evenodd"/>
	<path id="Vector" d="M26.1 11.25L34.73 11.25L34.73 77.42L26.1 77.42L26.1 11.25Z" fill="#F25900" fill-opacity="1.000000" fill-rule="evenodd"/>
	<path id="Vector" d="M34.73 11.25L43.41 11.25L43.41 77.42L34.73 77.42L34.73 11.25Z" fill="#B5BA05" fill-opacity="1.000000" fill-rule="evenodd"/>
	<path id="Vector" d="M43.41 11.25L52.04 11.25L52.04 77.42L43.41 77.42L43.41 11.25Z" fill="#00B394" fill-opacity="1.000000" fill-rule="evenodd"/>
	<path id="Vector" d="M52.04 11.25L60.72 11.25L60.72 77.42L52.04 77.42L52.04 11.25Z" fill="#00858A" fill-opacity="1.000000" fill-rule="evenodd"/>
	<path id="Vector" d="M60.72 11.25L69.41 11.25L69.41 77.42L60.72 77.42L60.72 11.25Z" fill="#003896" fill-opacity="1.000000" fill-rule="evenodd"/>
	<path id="Vector" d="M69.41 11.25L73.78 11.25C76.14 11.25 78.09 13.27 78.09 15.69L78.09 73.04C78.09 75.47 76.14 77.48 73.78 77.48L69.41 77.48L69.41 11.31L69.41 11.25Z" fill="#661C78" fill-opacity="1.000000" fill-rule="evenodd"/>
	<path id="Vector" d="M75.1 11.55C75.1 10.6 74.93 9.65 74.58 8.82C74.24 7.93 73.72 7.16 73.09 6.51C72.46 5.86 71.71 5.33 70.84 4.97C70.04 4.62 69.18 4.44 68.2 4.44L17.82 4.44C16.9 4.44 15.98 4.62 15.18 4.97C14.31 5.33 13.57 5.86 12.93 6.51C12.3 7.16 11.78 7.93 11.44 8.82C11.09 9.65 10.92 10.54 10.92 11.55C10.92 12.5 11.09 13.44 11.44 14.27C11.78 15.16 12.3 15.93 12.93 16.58C14.2 17.89 15.92 18.66 17.77 18.66L68.14 18.66C69.06 18.66 69.98 18.48 70.79 18.12C71.65 17.77 72.4 17.23 73.03 16.58C73.66 15.93 74.18 15.16 74.53 14.27C74.87 13.44 75.04 12.55 75.04 11.55L75.1 11.55Z" fill="#FEFEFE" fill-opacity="1.000000" fill-rule="nonzero"/>
	<path id="Vector" d="M45.66 54.2C45.66 53.02 45.71 51.65 45.71 50.17L45.71 50.11C45.77 47.86 45.83 45.43 45.83 43.18C45.83 40.93 45.83 38.74 45.71 36.9L45.71 36.84L45.71 36.78L45.71 36.72L45.71 36.67C45.77 35.6 45.37 34.89 44.68 34.41C43.82 33.88 42.49 33.59 40.88 33.53C39.39 33.47 37.61 33.53 35.71 33.7C33.75 33.88 31.74 34.12 29.61 34.36L29.55 34.36C24.44 34.95 19.03 35.54 14.2 35.24L14.14 35.24C10.86 35.13 8.16 34.18 6.03 32.64C3.56 30.86 1.89 28.37 0.92 25.71C0.63 24.88 0.4 23.99 0.23 23.04C0.05 22.15 0 21.2 0 20.31C0 19.43 0.05 18.54 0.17 17.65C0.28 16.82 0.51 15.99 0.8 15.22C1.49 13.38 2.53 11.78 3.96 10.78C4.77 10.18 5.69 9.77 6.72 9.53C6.9 8.7 7.07 7.93 7.41 7.22C7.99 5.8 8.85 4.5 9.89 3.43C10.92 2.36 12.19 1.48 13.57 0.88C14.89 0.29 16.33 0 17.88 0L68.26 0C69.75 0 71.25 0.29 72.57 0.88C73.95 1.48 75.22 2.36 76.25 3.43C77.29 4.5 78.15 5.8 78.72 7.22C79.01 7.93 79.24 8.64 79.36 9.41L81.31 9.41C82.69 9.41 83.84 10.6 83.84 12.02C83.84 13.44 82.69 14.63 81.31 14.63L79.24 14.63C79.13 15.16 78.95 15.63 78.78 16.11C78.21 17.53 77.34 18.83 76.31 19.9C75.27 20.97 74.01 21.86 72.63 22.45C71.3 23.04 69.87 23.34 68.31 23.34L17.94 23.34C16.44 23.34 14.95 23.04 13.62 22.45C12.24 21.86 10.98 20.97 9.94 19.9C8.91 18.83 8.05 17.53 7.47 16.11C7.24 15.52 7.07 14.92 6.9 14.33C6.78 14.39 6.61 14.51 6.49 14.57C5.8 15.1 5.29 15.93 4.94 16.88C4.77 17.41 4.6 17.95 4.54 18.54C4.42 19.13 4.42 19.72 4.42 20.37C4.42 21.03 4.48 21.68 4.6 22.33C4.71 22.98 4.88 23.63 5.11 24.22C5.75 26.06 6.95 27.78 8.62 29.02C10.12 30.09 12.01 30.74 14.43 30.8L14.49 30.8L14.54 30.8C19.03 31.1 24.26 30.5 29.21 29.97C31.39 29.73 33.52 29.5 35.54 29.32C37.55 29.14 39.45 29.08 41.17 29.14C43.87 29.26 46.12 29.79 47.67 30.98C49.34 32.22 50.26 34.12 50.14 36.84C50.26 38.68 50.26 40.93 50.26 43.3C50.26 45.67 50.2 48.1 50.14 50.35L50.14 50.41C50.14 51.77 50.08 53.08 50.08 54.38C50.54 54.5 50.95 54.62 51.35 54.79C52.44 55.27 53.48 55.98 54.28 56.81C55.15 57.7 55.78 58.7 56.24 59.83C56.7 60.95 56.93 62.14 56.93 63.38L56.93 90.69C56.93 91.94 56.7 93.18 56.24 94.25C55.78 95.37 55.09 96.44 54.28 97.27C53.42 98.16 52.44 98.81 51.35 99.28C50.26 99.76 49.11 100 47.9 100C46.69 100 45.48 99.76 44.45 99.28C43.36 98.81 42.32 98.1 41.52 97.27C40.65 96.38 40.02 95.37 39.56 94.25C39.1 93.12 38.87 91.94 38.87 90.69L38.87 63.38C38.87 62.14 39.1 60.9 39.56 59.83C40.02 58.7 40.71 57.64 41.52 56.81C42.38 55.92 43.36 55.27 44.45 54.79C44.85 54.62 45.31 54.44 45.77 54.38L45.66 54.2ZM75.1 11.55C75.1 10.6 74.93 9.65 74.58 8.82C74.24 7.93 73.72 7.16 73.09 6.51C72.46 5.86 71.71 5.33 70.84 4.97C70.04 4.62 69.18 4.44 68.2 4.44L17.82 4.44C16.9 4.44 15.98 4.62 15.18 4.97C14.31 5.33 13.57 5.86 12.93 6.51C12.3 7.16 11.78 7.93 11.44 8.82C11.09 9.65 10.92 10.54 10.92 11.55C10.92 12.5 11.09 13.44 11.44 14.27C11.78 15.16 12.3 15.93 12.93 16.58C14.2 17.89 15.92 18.66 17.77 18.66L68.14 18.66C69.06 18.66 69.98 18.48 70.79 18.12C71.65 17.77 72.4 17.23 73.03 16.58C73.66 15.93 74.18 15.16 74.53 14.27C74.87 13.44 75.04 12.55 75.04 11.55L75.1 11.55ZM51.12 59.89C50.66 59.41 50.14 59.06 49.57 58.82C48.99 58.59 48.42 58.47 47.78 58.47C47.15 58.47 46.52 58.59 46 58.82C45.43 59.06 44.91 59.41 44.45 59.89C43.99 60.36 43.64 60.9 43.41 61.49C43.18 62.08 43.07 62.67 43.07 63.32L43.07 90.63C43.07 91.29 43.18 91.94 43.41 92.47C43.64 93.06 43.99 93.6 44.45 94.07C44.91 94.54 45.43 94.9 46 95.14C46.58 95.37 47.15 95.49 47.78 95.49C48.42 95.49 49.05 95.37 49.57 95.14C50.14 94.9 50.66 94.54 51.12 94.07C51.58 93.6 51.92 93.06 52.15 92.47C52.38 91.88 52.5 91.29 52.5 90.63L52.5 63.32C52.5 62.67 52.38 62.02 52.15 61.49C51.92 60.9 51.58 60.36 51.12 59.89Z" fill="#2B2A29" fill-opacity="1.000000" fill-rule="nonzero"/>
	<path id="Vector" d="M57.45 41.11L57.45 41.35C57.45 44.31 58.88 46.56 61.82 48.1C62.74 48.45 63.54 48.63 64.29 48.63L64.92 48.63C67.34 48.63 69.29 47.39 70.9 44.9C71.48 43.72 71.77 42.65 71.77 41.52L71.77 41.17C71.77 38.32 70.38 36.07 67.62 34.53C66.65 34.12 65.67 33.88 64.63 33.88L64.52 33.88C61.59 33.88 59.4 35.48 57.91 38.62C57.62 39.57 57.5 40.4 57.5 41.05L57.45 41.11ZM71.71 50.65C69.98 52.31 67.68 53.13 64.86 53.13L64.23 53.13C60.32 53.13 57.04 51.12 54.46 47.09C53.48 45.14 53.02 43.18 53.02 41.23C53.02 36.84 55.09 33.35 59.29 30.74C61.07 29.85 62.79 29.44 64.52 29.44C68.89 29.44 72.34 31.63 74.87 36.01C75.62 37.79 76.02 39.63 76.02 41.52L76.02 51C76.02 52.19 75.33 52.9 73.95 53.13L73.78 53.13C72.8 53.13 72.11 52.54 71.65 51.36L71.65 51.12L71.65 50.65L71.71 50.65Z" fill="#FEFEFE" fill-opacity="1.000000" fill-rule="nonzero"/>
	<path id="Vector" d="M91.26 29.5C94.19 29.5 96.9 30.62 99.25 32.93C101.55 35.42 102.7 38.15 102.7 41.23C102.7 45.61 100.69 49.11 96.67 51.59C94.88 52.54 93.22 52.96 91.55 52.96L90.92 52.96C88.27 52.96 86.03 52.13 84.24 50.47L84.24 60.18C84.24 61.25 83.55 61.9 82.12 62.2C80.97 62.2 80.28 61.49 79.93 60.01L79.93 41.94C79.93 36.01 82.63 32.04 88.1 29.97C88.79 29.73 89.88 29.56 91.38 29.44L91.26 29.5ZM84.3 40.99L84.3 41.41C84.3 44.13 85.57 46.2 88.1 47.68C89.02 48.16 90 48.4 91.03 48.4L91.49 48.4C94.25 48.4 96.32 46.91 97.76 44.01C98.1 43.12 98.22 42.23 98.22 41.35L98.22 40.93C98.22 38.68 97.18 36.78 95.23 35.18C94.02 34.36 92.7 33.94 91.15 33.94C88.15 33.94 85.97 35.54 84.59 38.8C84.36 39.57 84.24 40.28 84.24 40.93L84.3 40.99ZM115.01 29.38C119.44 29.38 122.89 31.57 125.36 35.9C126.23 37.61 126.63 39.45 126.63 41.46L126.63 41.94C126.4 43.42 125.65 44.19 124.5 44.19L108.57 44.19C108.97 45.61 110.12 46.86 112.02 47.92C113.11 48.34 114.21 48.57 115.18 48.57C116.33 48.57 117.66 48.16 119.27 47.33L119.96 47.33C121.28 47.57 121.97 48.34 121.97 49.46L121.97 49.7C121.97 51.42 119.84 52.54 115.64 53.13L115.07 53.13C110.93 53.13 107.59 51.12 105.12 47.15C104.08 45.26 103.62 43.3 103.62 41.23C103.62 36.9 105.64 33.41 109.61 30.86C111.56 29.85 113.4 29.38 115.07 29.38L115.01 29.38ZM108.17 39.63L122.08 39.63C122.08 39.09 121.51 37.97 120.3 36.37C118.69 34.83 117.14 34.06 115.64 34.06L114.78 34.06C112.48 34.06 110.53 35.24 109.03 37.61C108.51 38.56 108.23 39.21 108.17 39.63ZM133.7 21.38L134.05 21.38C135.37 21.68 136 22.33 136 23.34L136 29.91L138.53 29.91L139.22 29.85C140.31 29.85 141 30.56 141.35 32.04C141.35 33.17 140.72 33.94 139.45 34.41L138.19 34.3L135.94 34.3L135.94 45.43C135.94 47.21 136.4 48.22 137.38 48.57L139.05 48.75L139.91 48.75C140.95 48.75 141.58 49.46 141.87 50.88L141.87 51.06C141.64 52.48 140.95 53.19 139.74 53.19L138.13 53.19C135.37 53.19 133.36 51.65 132.03 48.57C131.8 47.8 131.69 46.91 131.69 45.91L131.69 34.3L130.77 34.3L129.39 34.41C128.12 33.94 127.55 33.17 127.55 32.1C127.78 30.68 128.24 29.97 128.93 29.97L128.93 29.79L130.37 29.97L131.63 29.97L131.63 23.87C131.8 22.27 132.44 21.5 133.59 21.5L133.7 21.38ZM151.93 44.07C155.44 35.18 157.34 30.62 157.62 30.27C158.14 29.85 158.66 29.62 159.18 29.62C160.56 29.85 161.19 30.56 161.19 31.69L161.19 31.81C161.13 32.28 158.66 38.44 153.83 50.41C151.53 56.33 150.21 59.53 149.8 60.01C149.46 60.3 149 60.48 148.42 60.66C146.99 60.36 146.3 59.65 146.3 58.64L146.3 58.29C146.3 57.99 147.39 55.15 149.57 49.7L142.56 32.04L142.56 31.81C142.85 30.39 143.53 29.73 144.69 29.73C145.84 29.73 146.75 30.86 147.45 33.17C149.75 38.74 151.24 42.35 151.87 44.07L151.93 44.07Z" fill="#2B2A29" fill-opacity="1.000000" fill-rule="nonzero"/>
	<path id="Vector" d="M64 69.37L61.99 76.59C61.82 76.83 61.59 76.95 61.36 76.95L61.24 76.95C60.84 76.95 60.55 76.54 60.44 75.71C58.88 70.26 58.02 67.18 57.91 66.58C58.02 66.05 58.25 65.81 58.6 65.81L58.71 65.81C59.11 65.81 59.4 66.17 59.52 66.82L61.36 73.4C62.68 68.72 63.37 66.29 63.48 66.11C63.66 65.93 63.83 65.81 64.06 65.81L64.12 65.81C64.58 65.81 64.86 66.23 64.98 67C65.09 67.35 65.73 69.49 66.76 73.4L68.77 66.17C68.95 65.93 69.18 65.81 69.35 65.81L69.46 65.81C69.92 65.93 70.15 66.11 70.15 66.46L70.15 66.64L67.34 76.59C67.11 76.83 66.93 76.95 66.7 76.95L66.65 76.95C66.19 76.95 65.9 76.54 65.78 75.71C64.86 72.45 64.23 70.31 64 69.31L64 69.37ZM74.41 71.2L73.55 68.83L72.69 71.2L74.41 71.2ZM73.55 65.93C74.01 65.93 74.3 66.35 74.47 67.12C76.65 72.98 77.75 76 77.75 76.12L77.75 76.24C77.75 76.65 77.52 76.89 77.06 76.95L77 76.95C76.54 76.95 76.25 76.59 76.14 75.82L74.99 72.74L72.11 72.74L70.67 76.71C70.44 76.89 70.27 76.95 70.1 76.95L70.04 76.95C69.58 76.89 69.35 76.59 69.35 76.18L69.35 76.12L70.27 73.51C71.88 69.19 72.74 66.82 72.92 66.29C73.15 66.05 73.38 65.87 73.55 65.87L73.55 65.93Z" fill="#FEFEFE" fill-opacity="1.000000" fill-rule="nonzero"/>
	<path id="Vector" d="M174.19 65.87L174.3 65.87C174.76 65.99 174.99 66.17 174.99 66.52L174.99 75.41L179.25 75.41C179.65 75.41 179.94 75.71 180 76.24C179.88 76.71 179.59 76.95 179.25 76.95L174.24 76.95C173.84 76.95 173.61 76.71 173.5 76.18L173.5 66.7C173.55 66.17 173.78 65.87 174.19 65.87Z" fill="#2B2A29" fill-opacity="1.000000" fill-rule="nonzero"/>
	<path id="Vector" d="M167.57 65.81L170.05 65.81C171.08 65.81 172 66.35 172.69 67.47C172.98 68.06 173.09 68.54 173.09 69.01L173.09 69.19C173.09 70.2 172.63 71.09 171.77 71.8C171.2 72.21 170.56 72.45 169.99 72.45L168.32 72.45L168.32 76.18C168.32 76.59 168.09 76.83 167.63 76.89L167.57 76.89C167.17 76.89 166.94 76.65 166.83 76.12L166.83 66.58C166.88 66.05 167.11 65.75 167.52 65.75L167.57 65.81ZM168.38 67.35L168.38 70.91L169.87 70.91C170.68 70.91 171.25 70.49 171.54 69.72C171.6 69.54 171.66 69.37 171.66 69.13C171.66 68.42 171.31 67.83 170.56 67.47C170.39 67.41 170.16 67.35 169.93 67.35L168.38 67.35Z" fill="#2B2A29" fill-opacity="1.000000" fill-rule="nonzero"/>
	<path id="Vector" d="M165.04 74.46C165.68 74.46 166.08 74.82 166.25 75.59L166.25 75.82C166.25 76.3 165.96 76.65 165.45 76.89C165.33 76.95 165.22 76.95 165.1 76.95L165.04 76.95C164.41 76.95 164.01 76.54 163.84 75.71C163.84 75.17 164.12 74.76 164.7 74.52C164.81 74.46 164.93 74.46 165.04 74.46Z" fill="#F25900" fill-opacity="1.000000" fill-rule="nonzero"/>
	<path id="Vector" d="M154.12 70.26L154.12 76.24C154.12 76.65 153.89 76.89 153.43 76.95L153.37 76.95C152.97 76.95 152.74 76.71 152.62 76.18L152.62 66.7C152.68 66.17 152.91 65.87 153.31 65.87L153.43 65.87C153.83 65.87 154.12 66.17 154.23 66.76L157.57 74.4C157.62 74.22 158.32 72.51 159.75 69.19L161.13 66.17C161.31 65.99 161.48 65.93 161.65 65.93L161.77 65.93C162.17 65.93 162.4 66.23 162.46 66.76L162.46 76.24C162.34 76.77 162.11 77.01 161.71 77.01L161.65 77.01C161.19 76.95 160.96 76.65 160.96 76.3L160.96 70.31C159.18 74.46 158.26 76.65 158.14 76.77C157.97 76.95 157.74 77.01 157.57 77.01C157.16 77.01 156.82 76.59 156.53 75.71L154.17 70.31L154.12 70.26Z" fill="#2B2A29" fill-opacity="1.000000" fill-rule="nonzero"/>
	<path id="Vector" d="M146.47 65.87C148.31 65.87 149.8 66.76 151.01 68.48C151.59 69.49 151.82 70.43 151.82 71.44C151.82 73.28 151.01 74.82 149.4 76.06C148.48 76.65 147.5 76.95 146.53 76.95L146.41 76.95C144.57 76.95 143.02 76.06 141.87 74.28C141.35 73.4 141.06 72.39 141.06 71.38C141.06 69.6 141.81 68.12 143.31 66.94C144.28 66.23 145.32 65.87 146.41 65.87L146.47 65.87ZM142.56 71.5C142.56 72.8 143.13 73.87 144.23 74.76C144.92 75.23 145.61 75.47 146.41 75.47L146.53 75.47C147.73 75.47 148.77 74.94 149.63 73.81C150.09 73.1 150.38 72.33 150.38 71.5C150.38 70.02 149.75 68.89 148.42 68.06C147.79 67.71 147.16 67.47 146.47 67.47C145.2 67.47 144.11 68.06 143.25 69.19C142.79 69.9 142.56 70.67 142.56 71.5Z" fill="#2B2A29" fill-opacity="1.000000" fill-rule="nonzero"/>
	<path id="Vector" d="M137.09 65.81C138.19 65.81 139.28 66.17 140.26 66.88C140.37 67.12 140.43 67.23 140.43 67.35L140.43 67.41C140.43 67.89 140.2 68.12 139.68 68.18L139.57 68.18L138.59 67.65C137.96 67.47 137.5 67.35 137.09 67.35C135.89 67.35 134.79 67.95 133.93 69.07C133.47 69.84 133.24 70.61 133.24 71.32C133.24 72.8 133.93 73.99 135.25 74.82C135.83 75.11 136.46 75.29 137.04 75.29L137.09 75.29C137.84 75.29 138.65 75.05 139.45 74.52L139.68 74.52C140.14 74.64 140.37 74.88 140.37 75.23L140.37 75.29C140.37 75.82 139.74 76.24 138.42 76.65C138.01 76.77 137.61 76.83 137.15 76.83L137.04 76.83C135.25 76.83 133.76 76 132.55 74.28C131.98 73.28 131.69 72.27 131.69 71.26C131.69 69.37 132.55 67.77 134.22 66.58C135.14 65.99 136.06 65.75 137.04 65.75L137.09 65.81Z" fill="#2B2A29" fill-opacity="1.000000" fill-rule="nonzero"/>
	<path id="Vector" d="M129.91 74.46C130.54 74.46 130.94 74.82 131.11 75.59L131.11 75.82C131.11 76.3 130.83 76.65 130.31 76.89C130.19 76.95 130.08 76.95 129.96 76.95L129.91 76.95C129.27 76.95 128.87 76.54 128.7 75.71C128.7 75.17 128.99 74.76 129.56 74.52C129.68 74.46 129.79 74.46 129.91 74.46Z" fill="#F25900" fill-opacity="1.000000" fill-rule="nonzero"/>
	<path id="Vector" d="M123.35 65.87C123.81 65.87 124.1 66.29 124.27 67.06C126.46 72.92 127.55 75.94 127.55 76.06L127.55 76.18C127.55 76.59 127.32 76.83 126.86 76.89L126.8 76.89C126.34 76.89 126.05 76.54 125.94 75.77L124.79 72.68L121.91 72.68L120.47 76.65C120.24 76.83 120.07 76.89 119.9 76.89L119.84 76.89C119.38 76.83 119.15 76.54 119.15 76.12L119.15 76.06L120.07 73.45C121.68 69.13 122.55 66.76 122.72 66.23C122.95 65.99 123.18 65.81 123.35 65.81L123.35 65.87ZM124.21 71.14L123.35 68.77L122.49 71.14L124.21 71.14Z" fill="#2B2A29" fill-opacity="1.000000" fill-rule="nonzero"/>
	<path id="Vector" d="M113.8 69.37L111.79 76.59C111.62 76.83 111.39 76.95 111.16 76.95L111.04 76.95C110.64 76.95 110.35 76.54 110.24 75.71C108.69 70.26 107.82 67.18 107.71 66.58C107.82 66.05 108.05 65.81 108.4 65.81L108.51 65.81C108.92 65.81 109.2 66.17 109.32 66.82L111.16 73.4C112.48 68.72 113.17 66.29 113.29 66.11C113.46 65.93 113.63 65.81 113.86 65.81L113.92 65.81C114.38 65.81 114.67 66.23 114.78 67C114.9 67.35 115.53 69.49 116.56 73.4L118.58 66.17C118.75 65.93 118.98 65.81 119.15 65.81L119.27 65.81C119.73 65.93 119.96 66.11 119.96 66.46L119.96 66.64L117.2 76.59C116.97 76.83 116.79 76.95 116.56 76.95L116.51 76.95C116.05 76.95 115.76 76.54 115.64 75.71C114.72 72.45 114.09 70.31 113.86 69.31L113.8 69.37Z" fill="#2B2A29" fill-opacity="1.000000" fill-rule="nonzero"/>
	<path id="Vector" d="M104.2 65.87C104.66 65.87 104.95 66.29 105.12 67.06C107.31 72.92 108.4 75.94 108.4 76.06L108.4 76.18C108.4 76.59 108.17 76.83 107.71 76.89L107.65 76.89C107.19 76.89 106.9 76.54 106.79 75.77L105.64 72.68L102.76 72.68L101.32 76.65C101.09 76.83 100.92 76.89 100.75 76.89L100.69 76.89C100.23 76.83 100 76.54 100 76.12L100 76.06L100.92 73.45C102.53 69.13 103.39 66.76 103.57 66.23C103.8 65.99 104.03 65.81 104.2 65.81L104.2 65.87ZM105.06 71.14L104.2 68.77L103.34 71.14L105.06 71.14Z" fill="#2B2A29" fill-opacity="1.000000" fill-rule="nonzero"/>
	<path id="Vector" d="M91.72 65.81L99.08 65.81C99.48 65.81 99.71 66.05 99.77 66.52L99.77 66.58C99.77 66.76 99.54 67.12 99.14 67.65L93.33 75.35L99.02 75.35C99.48 75.41 99.77 75.71 99.77 76.12L99.77 76.18C99.71 76.65 99.43 76.89 99.02 76.89L91.78 76.89C91.38 76.89 91.15 76.65 91.03 76.06C91.03 75.88 91.49 75.17 92.41 74.05L97.47 67.29L91.78 67.29C91.26 67.18 91.03 66.94 91.03 66.46C91.15 65.99 91.38 65.75 91.72 65.75L91.72 65.81Z" fill="#2B2A29" fill-opacity="1.000000" fill-rule="nonzero"/>
	<path id="Vector" d="M87.87 65.81C88.84 65.81 89.65 66.29 90.28 67.18L90.34 67.35L90.34 67.53C90.34 67.89 90.11 68.12 89.59 68.18C89.36 68.18 89.07 67.95 88.67 67.53C88.38 67.35 88.15 67.29 87.92 67.29L87.75 67.29C87.23 67.29 86.83 67.59 86.54 68.18C86.49 68.3 86.49 68.42 86.49 68.54L86.49 68.77C86.49 69.37 86.83 69.84 87.58 70.14C88.21 70.14 88.9 70.43 89.65 71.09C90.4 71.86 90.74 72.68 90.74 73.57C90.74 74.7 90.28 75.59 89.36 76.3C88.79 76.71 88.15 76.89 87.46 76.89C86.37 76.89 85.39 76.36 84.7 75.35L84.65 75.05C84.76 74.52 84.99 74.28 85.39 74.28C85.62 74.28 85.97 74.52 86.26 74.94C86.66 75.23 87 75.35 87.35 75.35L87.58 75.35C88.21 75.35 88.73 75 89.13 74.22C89.19 73.99 89.25 73.81 89.25 73.69L89.25 73.4C89.25 72.74 88.9 72.21 88.15 71.8L86.77 71.38C85.62 70.73 85.05 69.84 85.05 68.72L85.05 68.54C85.05 67.47 85.62 66.64 86.72 65.99C87.12 65.81 87.52 65.75 87.87 65.75L87.87 65.81Z" fill="#2B2A29" fill-opacity="1.000000" fill-rule="nonzero"/>
	<path id="Vector" d="M78.55 65.87L80.79 65.87C81.83 65.87 82.69 66.46 83.32 67.59C83.55 68 83.67 68.48 83.67 68.95L83.67 69.07C83.67 70.14 83.15 71.03 82.17 71.68L82.12 71.74C83.73 74.58 84.53 76.06 84.53 76.12L84.53 76.24C84.53 76.65 84.3 76.89 83.78 76.95L83.73 76.95C83.38 76.95 83.04 76.59 82.69 75.88L80.51 72.09L79.3 72.09L79.3 76.24C79.3 76.65 79.07 76.89 78.55 76.95L78.49 76.95C78.09 76.95 77.86 76.71 77.75 76.18L77.75 66.7C77.8 66.17 78.03 65.87 78.44 65.87L78.55 65.87ZM79.36 67.41L79.36 70.55L80.68 70.55C81.43 70.55 81.94 70.14 82.17 69.31L82.17 69.13L82.17 68.89C82.17 68.3 81.83 67.83 81.14 67.47C80.97 67.41 80.62 67.35 80.22 67.35L79.3 67.35L79.36 67.41Z" fill="#2B2A29" fill-opacity="1.000000" fill-rule="nonzero"/>
	<path id="Vector" d="M51.12 59.83C50.66 59.36 50.14 59 49.57 58.76C48.99 58.53 48.42 58.41 47.78 58.41C47.15 58.41 46.52 58.53 46 58.76C45.43 59 44.91 59.36 44.45 59.83C43.99 60.3 43.64 60.84 43.41 61.43C43.18 62.02 43.07 62.61 43.07 63.27L43.07 90.58C43.07 91.23 43.18 91.88 43.41 92.41C43.64 93 43.99 93.54 44.45 94.01C44.91 94.49 45.43 94.84 46 95.08C46.58 95.31 47.15 95.43 47.78 95.43C48.42 95.43 49.05 95.31 49.57 95.08C50.14 94.84 50.66 94.49 51.12 94.01C51.58 93.54 51.92 93 52.15 92.41C52.38 91.82 52.5 91.23 52.5 90.58L52.5 63.27C52.5 62.61 52.38 61.96 52.15 61.43C51.92 60.84 51.58 60.3 51.12 59.83Z" fill="#FEFEFE" fill-opacity="1.000000" fill-rule="nonzero"/>
	<path id="Vector" d="M52.5 76.95L43.07 76.95L43.07 63.27C43.07 62.61 43.18 61.96 43.41 61.43C43.64 60.84 43.99 60.3 44.45 59.83C44.91 59.36 45.43 59 46 58.76C46.58 58.53 47.15 58.41 47.78 58.41C48.42 58.41 49.05 58.53 49.57 58.76C50.14 59 50.66 59.36 51.12 59.83C51.58 60.3 51.92 60.84 52.15 61.43C52.38 62.02 52.5 62.61 52.5 63.27L52.5 76.95Z" fill="#486BB1" fill-opacity="1.000000" fill-rule="evenodd"/>
	<path id="Vector" d="M57.45 41.11L57.45 41.35C57.45 44.31 58.88 46.56 61.82 48.1C62.74 48.45 63.54 48.63 64.29 48.63L64.92 48.63C67.34 48.63 69.29 47.39 70.9 44.9C71.48 43.72 71.77 42.65 71.77 41.52L71.77 41.17C71.77 38.32 70.38 36.07 67.62 34.53C66.65 34.12 65.67 33.88 64.63 33.88L64.52 33.88C61.59 33.88 59.4 35.48 57.91 38.62C57.62 39.57 57.5 40.4 57.5 41.05L57.45 41.11ZM71.71 50.65C69.98 52.31 67.68 53.13 64.86 53.13L64.23 53.13C60.32 53.13 57.04 51.12 54.46 47.09C53.48 45.14 53.02 43.18 53.02 41.23C53.02 36.84 55.09 33.35 59.29 30.74C61.07 29.85 62.79 29.44 64.52 29.44C68.89 29.44 72.34 31.63 74.87 36.01C75.62 37.79 76.02 39.63 76.02 41.52L76.02 51C76.02 52.19 75.33 52.9 73.95 53.13L73.78 53.13C72.8 53.13 72.11 52.54 71.65 51.36L71.65 51.12L71.65 50.65L71.71 50.65Z" fill="#FEFEFE" fill-opacity="1.000000" fill-rule="nonzero"/>
	<path id="Vector" d="M91.26 29.5C94.19 29.5 96.9 30.62 99.25 32.93C101.55 35.42 102.7 38.15 102.7 41.23C102.7 45.61 100.69 49.11 96.67 51.59C94.88 52.54 93.22 52.96 91.55 52.96L90.92 52.96C88.27 52.96 86.03 52.13 84.24 50.47L84.24 60.18C84.24 61.25 83.55 61.9 82.12 62.2C80.97 62.2 80.28 61.49 79.93 60.01L79.93 41.94C79.93 36.01 82.63 32.04 88.1 29.97C88.79 29.73 89.88 29.56 91.38 29.44L91.26 29.5ZM84.3 40.99L84.3 41.41C84.3 44.13 85.57 46.2 88.1 47.68C89.02 48.16 90 48.4 91.03 48.4L91.49 48.4C94.25 48.4 96.32 46.91 97.76 44.01C98.1 43.12 98.22 42.23 98.22 41.35L98.22 40.93C98.22 38.68 97.18 36.78 95.23 35.18C94.02 34.36 92.7 33.94 91.15 33.94C88.15 33.94 85.97 35.54 84.59 38.8C84.36 39.57 84.24 40.28 84.24 40.93L84.3 40.99ZM115.01 29.38C119.44 29.38 122.89 31.57 125.36 35.9C126.23 37.61 126.63 39.45 126.63 41.46L126.63 41.94C126.4 43.42 125.65 44.19 124.5 44.19L108.57 44.19C108.97 45.61 110.12 46.86 112.02 47.92C113.11 48.34 114.21 48.57 115.18 48.57C116.33 48.57 117.66 48.16 119.27 47.33L119.96 47.33C121.28 47.57 121.97 48.34 121.97 49.46L121.97 49.7C121.97 51.42 119.84 52.54 115.64 53.13L115.07 53.13C110.93 53.13 107.59 51.12 105.12 47.15C104.08 45.26 103.62 43.3 103.62 41.23C103.62 36.9 105.64 33.41 109.61 30.86C111.56 29.85 113.4 29.38 115.07 29.38L115.01 29.38ZM108.17 39.63L122.08 39.63C122.08 39.09 121.51 37.97 120.3 36.37C118.69 34.83 117.14 34.06 115.64 34.06L114.78 34.06C112.48 34.06 110.53 35.24 109.03 37.61C108.51 38.56 108.23 39.21 108.17 39.63ZM133.7 21.38L134.05 21.38C135.37 21.68 136 22.33 136 23.34L136 29.91L138.53 29.91L139.22 29.85C140.31 29.85 141 30.56 141.35 32.04C141.35 33.17 140.72 33.94 139.45 34.41L138.19 34.3L135.94 34.3L135.94 45.43C135.94 47.21 136.4 48.22 137.38 48.57L139.05 48.75L139.91 48.75C140.95 48.75 141.58 49.46 141.87 50.88L141.87 51.06C141.64 52.48 140.95 53.19 139.74 53.19L138.13 53.19C135.37 53.19 133.36 51.65 132.03 48.57C131.8 47.8 131.69 46.91 131.69 45.91L131.69 34.3L130.77 34.3L129.39 34.41C128.12 33.94 127.55 33.17 127.55 32.1C127.78 30.68 128.24 29.97 128.93 29.97L128.93 29.79L130.37 29.97L131.63 29.97L131.63 23.87C131.8 22.27 132.44 21.5 133.59 21.5L133.7 21.38ZM151.93 44.07C155.44 35.18 157.34 30.62 157.62 30.27C158.14 29.85 158.66 29.62 159.18 29.62C160.56 29.85 161.19 30.56 161.19 31.69L161.19 31.81C161.13 32.28 158.66 38.44 153.83 50.41C151.53 56.33 150.21 59.53 149.8 60.01C149.46 60.3 149 60.48 148.42 60.66C146.99 60.36 146.3 59.65 146.3 58.64L146.3 58.29C146.3 57.99 147.39 55.15 149.57 49.7L142.56 32.04L142.56 31.81C142.85 30.39 143.53 29.73 144.69 29.73C145.84 29.73 146.75 30.86 147.45 33.17C149.75 38.74 151.24 42.35 151.87 44.07L151.93 44.07Z" fill="#2B2A29" fill-opacity="1.000000" fill-rule="nonzero"/>
	<path id="Vector" d="M174.19 65.87L174.3 65.87C174.76 65.99 174.99 66.17 174.99 66.52L174.99 75.41L179.25 75.41C179.65 75.41 179.94 75.71 180 76.24C179.88 76.71 179.59 76.95 179.25 76.95L174.24 76.95C173.84 76.95 173.61 76.71 173.5 76.18L173.5 66.7C173.55 66.17 173.78 65.87 174.19 65.87Z" fill="#2B2A29" fill-opacity="1.000000" fill-rule="nonzero"/>
	<path id="Vector" d="M167.57 65.81L170.05 65.81C171.08 65.81 172 66.35 172.69 67.47C172.98 68.06 173.09 68.54 173.09 69.01L173.09 69.19C173.09 70.2 172.63 71.09 171.77 71.8C171.2 72.21 170.56 72.45 169.99 72.45L168.32 72.45L168.32 76.18C168.32 76.59 168.09 76.83 167.63 76.89L167.57 76.89C167.17 76.89 166.94 76.65 166.83 76.12L166.83 66.58C166.88 66.05 167.11 65.75 167.52 65.75L167.57 65.81ZM168.38 67.35L168.38 70.91L169.87 70.91C170.68 70.91 171.25 70.49 171.54 69.72C171.6 69.54 171.66 69.37 171.66 69.13C171.66 68.42 171.31 67.83 170.56 67.47C170.39 67.41 170.16 67.35 169.93 67.35L168.38 67.35Z" fill="#2B2A29" fill-opacity="1.000000" fill-rule="nonzero"/>
	<path id="Vector" d="M154.12 70.26L154.12 76.24C154.12 76.65 153.89 76.89 153.43 76.95L153.37 76.95C152.97 76.95 152.74 76.71 152.62 76.18L152.62 66.7C152.68 66.17 152.91 65.87 153.31 65.87L153.43 65.87C153.83 65.87 154.12 66.17 154.23 66.76L157.57 74.4C157.62 74.22 158.32 72.51 159.75 69.19L161.13 66.17C161.31 65.99 161.48 65.93 161.65 65.93L161.77 65.93C162.17 65.93 162.4 66.23 162.46 66.76L162.46 76.24C162.34 76.77 162.11 77.01 161.71 77.01L161.65 77.01C161.19 76.95 160.96 76.65 160.96 76.3L160.96 70.31C159.18 74.46 158.26 76.65 158.14 76.77C157.97 76.95 157.74 77.01 157.57 77.01C157.16 77.01 156.82 76.59 156.53 75.71L154.17 70.31L154.12 70.26Z" fill="#2B2A29" fill-opacity="1.000000" fill-rule="nonzero"/>
	<path id="Vector" d="M146.47 65.87C148.31 65.87 149.8 66.76 151.01 68.48C151.59 69.49 151.82 70.43 151.82 71.44C151.82 73.28 151.01 74.82 149.4 76.06C148.48 76.65 147.5 76.95 146.53 76.95L146.41 76.95C144.57 76.95 143.02 76.06 141.87 74.28C141.35 73.4 141.06 72.39 141.06 71.38C141.06 69.6 141.81 68.12 143.31 66.94C144.28 66.23 145.32 65.87 146.41 65.87L146.47 65.87ZM142.56 71.5C142.56 72.8 143.13 73.87 144.23 74.76C144.92 75.23 145.61 75.47 146.41 75.47L146.53 75.47C147.73 75.47 148.77 74.94 149.63 73.81C150.09 73.1 150.38 72.33 150.38 71.5C150.38 70.02 149.75 68.89 148.42 68.06C147.79 67.71 147.16 67.47 146.47 67.47C145.2 67.47 144.11 68.06 143.25 69.19C142.79 69.9 142.56 70.67 142.56 71.5Z" fill="#2B2A29" fill-opacity="1.000000" fill-rule="nonzero"/>
	<path id="Vector" d="M137.09 65.81C138.19 65.81 139.28 66.17 140.26 66.88C140.37 67.12 140.43 67.23 140.43 67.35L140.43 67.41C140.43 67.89 140.2 68.12 139.68 68.18L139.57 68.18L138.59 67.65C137.96 67.47 137.5 67.35 137.09 67.35C135.89 67.35 134.79 67.95 133.93 69.07C133.47 69.84 133.24 70.61 133.24 71.32C133.24 72.8 133.93 73.99 135.25 74.82C135.83 75.11 136.46 75.29 137.04 75.29L137.09 75.29C137.84 75.29 138.65 75.05 139.45 74.52L139.68 74.52C140.14 74.64 140.37 74.88 140.37 75.23L140.37 75.29C140.37 75.82 139.74 76.24 138.42 76.65C138.01 76.77 137.61 76.83 137.15 76.83L137.04 76.83C135.25 76.83 133.76 76 132.55 74.28C131.98 73.28 131.69 72.27 131.69 71.26C131.69 69.37 132.55 67.77 134.22 66.58C135.14 65.99 136.06 65.75 137.04 65.75L137.09 65.81Z" fill="#2B2A29" fill-opacity="1.000000" fill-rule="nonzero"/>
	<path id="Vector" d="M123.35 65.87C123.81 65.87 124.1 66.29 124.27 67.06C126.46 72.92 127.55 75.94 127.55 76.06L127.55 76.18C127.55 76.59 127.32 76.83 126.86 76.89L126.8 76.89C126.34 76.89 126.05 76.54 125.94 75.77L124.79 72.68L121.91 72.68L120.47 76.65C120.24 76.83 120.07 76.89 119.9 76.89L119.84 76.89C119.38 76.83 119.15 76.54 119.15 76.12L119.15 76.06L120.07 73.45C121.68 69.13 122.55 66.76 122.72 66.23C122.95 65.99 123.18 65.81 123.35 65.81L123.35 65.87ZM124.21 71.14L123.35 68.77L122.49 71.14L124.21 71.14Z" fill="#2B2A29" fill-opacity="1.000000" fill-rule="nonzero"/>
	<path id="Vector" d="M113.8 69.37L111.79 76.59C111.62 76.83 111.39 76.95 111.16 76.95L111.04 76.95C110.64 76.95 110.35 76.54 110.24 75.71C108.69 70.26 107.82 67.18 107.71 66.58C107.82 66.05 108.05 65.81 108.4 65.81L108.51 65.81C108.92 65.81 109.2 66.17 109.32 66.82L111.16 73.4C112.48 68.72 113.17 66.29 113.29 66.11C113.46 65.93 113.63 65.81 113.86 65.81L113.92 65.81C114.38 65.81 114.67 66.23 114.78 67C114.9 67.35 115.53 69.49 116.56 73.4L118.58 66.17C118.75 65.93 118.98 65.81 119.15 65.81L119.27 65.81C119.73 65.93 119.96 66.11 119.96 66.46L119.96 66.64L117.2 76.59C116.97 76.83 116.79 76.95 116.56 76.95L116.51 76.95C116.05 76.95 115.76 76.54 115.64 75.71C114.72 72.45 114.09 70.31 113.86 69.31L113.8 69.37Z" fill="#2B2A29" fill-opacity="1.000000" fill-rule="nonzero"/>
	<path id="Vector" d="M104.2 65.87C104.66 65.87 104.95 66.29 105.12 67.06C107.31 72.92 108.4 75.94 108.4 76.06L108.4 76.18C108.4 76.59 108.17 76.83 107.71 76.89L107.65 76.89C107.19 76.89 106.9 76.54 106.79 75.77L105.64 72.68L102.76 72.68L101.32 76.65C101.09 76.83 100.92 76.89 100.75 76.89L100.69 76.89C100.23 76.83 100 76.54 100 76.12L100 76.06L100.92 73.45C102.53 69.13 103.39 66.76 103.57 66.23C103.8 65.99 104.03 65.81 104.2 65.81L104.2 65.87ZM105.06 71.14L104.2 68.77L103.34 71.14L105.06 71.14Z" fill="#2B2A29" fill-opacity="1.000000" fill-rule="nonzero"/>
	<path id="Vector" d="M91.72 65.81L99.08 65.81C99.48 65.81 99.71 66.05 99.77 66.52L99.77 66.58C99.77 66.76 99.54 67.12 99.14 67.65L93.33 75.35L99.02 75.35C99.48 75.41 99.77 75.71 99.77 76.12L99.77 76.18C99.71 76.65 99.43 76.89 99.02 76.89L91.78 76.89C91.38 76.89 91.15 76.65 91.03 76.06C91.03 75.88 91.49 75.17 92.41 74.05L97.47 67.29L91.78 67.29C91.26 67.18 91.03 66.94 91.03 66.46C91.15 65.99 91.38 65.75 91.72 65.75L91.72 65.81Z" fill="#2B2A29" fill-opacity="1.000000" fill-rule="nonzero"/>
	<path id="Vector" d="M87.87 65.81C88.84 65.81 89.65 66.29 90.28 67.18L90.34 67.35L90.34 67.53C90.34 67.89 90.11 68.12 89.59 68.18C89.36 68.18 89.07 67.95 88.67 67.53C88.38 67.35 88.15 67.29 87.92 67.29L87.75 67.29C87.23 67.29 86.83 67.59 86.54 68.18C86.49 68.3 86.49 68.42 86.49 68.54L86.49 68.77C86.49 69.37 86.83 69.84 87.58 70.14C88.21 70.14 88.9 70.43 89.65 71.09C90.4 71.86 90.74 72.68 90.74 73.57C90.74 74.7 90.28 75.59 89.36 76.3C88.79 76.71 88.15 76.89 87.46 76.89C86.37 76.89 85.39 76.36 84.7 75.35L84.65 75.05C84.76 74.52 84.99 74.28 85.39 74.28C85.62 74.28 85.97 74.52 86.26 74.94C86.66 75.23 87 75.35 87.35 75.35L87.58 75.35C88.21 75.35 88.73 75 89.13 74.22C89.19 73.99 89.25 73.81 89.25 73.69L89.25 73.4C89.25 72.74 88.9 72.21 88.15 71.8L86.77 71.38C85.62 70.73 85.05 69.84 85.05 68.72L85.05 68.54C85.05 67.47 85.62 66.64 86.72 65.99C87.12 65.81 87.52 65.75 87.87 65.75L87.87 65.81Z" fill="#2B2A29" fill-opacity="1.000000" fill-rule="nonzero"/>
	<path id="Vector" d="M78.55 65.87L80.79 65.87C81.83 65.87 82.69 66.46 83.32 67.59C83.55 68 83.67 68.48 83.67 68.95L83.67 69.07C83.67 70.14 83.15 71.03 82.17 71.68L82.12 71.74C83.73 74.58 84.53 76.06 84.53 76.12L84.53 76.24C84.53 76.65 84.3 76.89 83.78 76.95L83.73 76.95C83.38 76.95 83.04 76.59 82.69 75.88L80.51 72.09L79.3 72.09L79.3 76.24C79.3 76.65 79.07 76.89 78.55 76.95L78.49 76.95C78.09 76.95 77.86 76.71 77.75 76.18L77.75 66.7C77.8 66.17 78.03 65.87 78.44 65.87L78.55 65.87ZM79.36 67.41L79.36 70.55L80.68 70.55C81.43 70.55 81.94 70.14 82.17 69.31L82.17 69.13L82.17 68.89C82.17 68.3 81.83 67.83 81.14 67.47C80.97 67.41 80.62 67.35 80.22 67.35L79.3 67.35L79.36 67.41Z" fill="#2B2A29" fill-opacity="1.000000" fill-rule="nonzero"/>
	<path id="Vector" d="M51.12 59.83C50.66 59.36 50.14 59 49.57 58.76C48.99 58.53 48.42 58.41 47.78 58.41C47.15 58.41 46.52 58.53 46 58.76C45.43 59 44.91 59.36 44.45 59.83C43.99 60.3 43.64 60.84 43.41 61.43C43.18 62.02 43.07 62.61 43.07 63.27L43.07 90.58C43.07 91.23 43.18 91.88 43.41 92.41C43.64 93 43.99 93.54 44.45 94.01C44.91 94.49 45.43 94.84 46 95.08C46.58 95.31 47.15 95.43 47.78 95.43C48.42 95.43 49.05 95.31 49.57 95.08C50.14 94.84 50.66 94.49 51.12 94.01C51.58 93.54 51.92 93 52.15 92.41C52.38 91.82 52.5 91.23 52.5 90.58L52.5 63.27C52.5 62.61 52.38 61.96 52.15 61.43C51.92 60.84 51.58 60.3 51.12 59.83Z" fill="#FEFEFE" fill-opacity="1.000000" fill-rule="nonzero"/>
</svg>
